<svg width="21" height="20" viewBox="0 0 21 20" fill="none" xmlns="http://www.w3.org/2000/svg">
<path d="M15.3177 10.4629C15.3098 9.13086 15.9134 8.12695 17.1321 7.38672C16.4505 6.41016 15.4192 5.87305 14.0598 5.76953C12.7727 5.66797 11.3645 6.51953 10.8489 6.51953C10.304 6.51953 9.05789 5.80469 8.07742 5.80469C6.05399 5.83594 3.90359 7.41797 3.90359 10.6367C3.90359 11.5879 4.07742 12.5703 4.42508 13.582C4.88992 14.9141 6.5657 18.1777 8.31375 18.125C9.22781 18.1035 9.8743 17.4766 11.0638 17.4766C12.218 17.4766 12.8157 18.125 13.8352 18.125C15.5989 18.0996 17.1145 15.1328 17.5559 13.7969C15.1907 12.6816 15.3177 10.5312 15.3177 10.4629ZM13.2649 4.50586C14.2552 3.33008 14.1653 2.25977 14.136 1.875C13.261 1.92578 12.2493 2.4707 11.6731 3.14062C11.0384 3.85938 10.6653 4.74805 10.7454 5.75C11.6907 5.82227 12.554 5.33594 13.2649 4.50586Z" fill="#FE581E"/>
</svg>
