<svg width="60" height="60" viewBox="0 0 60 60" fill="none" xmlns="http://www.w3.org/2000/svg">
<path d="M51.6656 15.1605L33.7688 4.76015C32.6235 4.09631 31.3232 3.7467 29.9994 3.7467C28.6757 3.7467 27.3754 4.09631 26.2301 4.76015L8.33438 15.1605C8.26389 15.2019 8.20544 15.261 8.16483 15.3319C8.12421 15.4028 8.10284 15.4831 8.10284 15.5648C8.10284 15.6466 8.12421 15.7269 8.16483 15.7978C8.20544 15.8687 8.26389 15.9278 8.33438 15.9691L29.7656 28.5762C29.8377 28.6186 29.9199 28.641 30.0035 28.641C30.0872 28.641 30.1693 28.6186 30.2414 28.5762L51.668 15.9691C51.7383 15.9276 51.7966 15.8683 51.837 15.7973C51.8774 15.7263 51.8986 15.6459 51.8983 15.5642C51.8981 15.4824 51.8765 15.4022 51.8357 15.3314C51.7949 15.2606 51.7362 15.2017 51.6656 15.1605ZM30 17.8125C28.4473 17.8125 27.1875 16.9734 27.1875 15.9375C27.1875 14.9016 28.4473 14.0625 30 14.0625C31.5527 14.0625 32.8125 14.9016 32.8125 15.9375C32.8125 16.9734 31.5527 17.8125 30 17.8125Z" fill="#FE581E"/>
<path d="M27.8906 31.7355L6.32812 19.1578C6.2569 19.1166 6.17611 19.095 6.09387 19.095C6.01163 19.0949 5.93083 19.1166 5.85958 19.1577C5.78834 19.1987 5.72916 19.2578 5.68798 19.329C5.6468 19.4002 5.62508 19.481 5.625 19.5632V39.9445C5.62677 40.9265 5.88559 41.8909 6.37572 42.7419C6.86585 43.5928 7.57021 44.3006 8.41875 44.7949L27.4219 56.189C27.4931 56.2301 27.5739 56.2518 27.6561 56.2518C27.7384 56.2518 27.8192 56.2302 27.8904 56.1891C27.9617 56.1481 28.0208 56.089 28.062 56.0178C28.1032 55.9466 28.1249 55.8658 28.125 55.7836V32.141C28.1249 32.0588 28.1032 31.978 28.0621 31.9069C28.0209 31.8357 27.9618 31.7766 27.8906 31.7355V31.7355ZM11.25 43.125C10.2141 43.125 9.375 41.8652 9.375 40.3125C9.375 38.7597 10.2141 37.5 11.25 37.5C12.2859 37.5 13.125 38.7597 13.125 40.3125C13.125 41.8652 12.2859 43.125 11.25 43.125ZM22.5 39.375C21.4641 39.375 20.625 38.1152 20.625 36.5625C20.625 35.0097 21.4641 33.75 22.5 33.75C23.5359 33.75 24.375 35.0097 24.375 36.5625C24.375 38.1152 23.5359 39.375 22.5 39.375Z" fill="#FE581E"/>
<path d="M53.6719 19.1613L32.1094 31.8234C32.0384 31.8644 31.9793 31.9233 31.9382 31.9943C31.8971 32.0652 31.8753 32.1457 31.875 32.2277V55.7812C31.8751 55.8635 31.8968 55.9443 31.938 56.0154C31.9792 56.0866 32.0383 56.1457 32.1096 56.1868C32.1808 56.2279 32.2616 56.2495 32.3439 56.2495C32.4261 56.2495 32.5069 56.2278 32.5781 56.1867L51.5801 44.7926C52.4285 44.2986 53.1329 43.5913 53.6232 42.7408C54.1135 41.8903 54.3727 40.9262 54.375 39.9445V19.5703C54.3755 19.4878 54.3543 19.4065 54.3133 19.3349C54.2724 19.2632 54.2133 19.2036 54.1419 19.1621C54.0706 19.1206 53.9896 19.0986 53.907 19.0985C53.8245 19.0984 53.7434 19.12 53.6719 19.1613ZM37.5 49.6875C36.4641 49.6875 35.625 48.4277 35.625 46.875C35.625 45.3223 36.4641 44.0625 37.5 44.0625C38.5359 44.0625 39.375 45.3223 39.375 46.875C39.375 48.4277 38.5359 49.6875 37.5 49.6875ZM37.5 39.375C36.4641 39.375 35.625 38.1152 35.625 36.5625C35.625 35.0098 36.4641 33.75 37.5 33.75C38.5359 33.75 39.375 35.0098 39.375 36.5625C39.375 38.1152 38.5359 39.375 37.5 39.375ZM48.75 43.125C47.7141 43.125 46.875 41.8652 46.875 40.3125C46.875 38.7598 47.7141 37.5 48.75 37.5C49.7859 37.5 50.625 38.7598 50.625 40.3125C50.625 41.8652 49.7859 43.125 48.75 43.125ZM48.75 32.8125C47.7141 32.8125 46.875 31.5527 46.875 30C46.875 28.4473 47.7141 27.1875 48.75 27.1875C49.7859 27.1875 50.625 28.4473 50.625 30C50.625 31.5527 49.7859 32.8125 48.75 32.8125Z" fill="#FE581E"/>
</svg>
