<svg width="60" height="60" viewBox="0 0 60 60" fill="none" xmlns="http://www.w3.org/2000/svg">
<path d="M50.5575 0C54.0731 0 56.9044 2.8425 57.0712 6.19125V60L50.3812 54.3169L46.71 50.9775L42.6956 47.4806L44.3662 52.9894H9.27748C5.77123 52.9894 2.9306 50.3325 2.9306 46.7981V6.2025C2.9306 2.85375 5.7731 0.01125 9.28873 0.01125H50.5387L50.5575 0ZM35.2631 14.2088H35.1844L34.6762 14.7075C39.8625 16.2112 42.3712 18.555 42.3712 18.555C39.0319 16.8844 36.0131 16.0444 33.0056 15.7031C30.8381 15.3712 28.6594 15.5475 26.8237 15.7031H26.3156C25.1437 15.7031 22.6444 16.2113 19.2937 17.5481C18.1312 18.0563 17.4581 18.3881 17.4581 18.3881C17.4581 18.3881 19.9575 15.8775 25.485 14.5406L25.1437 14.2088C25.1437 14.2088 20.9644 14.0419 16.4531 17.3831C16.4531 17.3831 11.9419 25.245 11.9419 34.9312C11.9419 34.9312 14.4412 39.2775 21.2981 39.4425C21.2981 39.4425 22.3031 38.115 23.31 36.9431C19.4625 35.7712 17.9587 33.4275 17.9587 33.4275C17.9587 33.4275 18.3 33.5944 18.7987 33.9262H18.945C19.0237 33.9262 19.0631 33.9656 19.1006 34.005V34.0237C19.14 34.0631 19.1794 34.0912 19.2469 34.0912C20.0775 34.4325 20.8969 34.7644 21.5719 35.0963C22.7437 35.595 24.2381 36.1012 26.0737 36.435C28.3987 36.7762 31.0631 36.9337 34.1006 36.435C35.595 36.0937 37.0987 35.7713 38.6025 35.0963C39.57 34.5975 40.77 34.1006 42.0881 33.2512C42.0881 33.2512 40.5937 35.595 36.5794 36.7669C37.4006 37.9294 38.5612 39.2662 38.5612 39.2662C45.4256 39.1106 48.0919 34.7644 48.2381 34.95C48.2381 25.2731 43.6969 17.4019 43.6969 17.4019C39.615 14.3644 35.7862 14.2481 35.1131 14.2481L35.25 14.1994L35.2631 14.2088ZM35.6831 25.245C37.4419 25.245 38.8575 26.7394 38.8575 28.575C38.8575 30.4312 37.4325 31.9237 35.6831 31.9237C33.9244 31.9237 32.5087 30.4294 32.5087 28.5938C32.5087 26.7375 33.9337 25.245 35.6831 25.245ZM24.3262 25.245C26.0737 25.245 27.4912 26.7394 27.4912 28.575C27.4912 30.4312 26.0662 31.9237 24.3169 31.9237C22.5581 31.9237 21.1331 30.4294 21.1331 28.5938C21.1331 26.7375 22.5581 25.245 24.3169 25.245H24.3262Z" fill="#FE581E"/>
</svg>
