<svg width="60" height="60" viewBox="0 0 60 60" fill="none" xmlns="http://www.w3.org/2000/svg">
<path d="M16.775 23.225C16.5426 22.9907 16.2661 22.8047 15.9614 22.6778C15.6568 22.5509 15.33 22.4855 15 22.4855C14.67 22.4855 14.3432 22.5509 14.0386 22.6778C13.7339 22.8047 13.4574 22.9907 13.225 23.225C12.9974 23.4628 12.819 23.7431 12.7 24.05C12.5086 24.5053 12.4562 25.0071 12.5497 25.492C12.6431 25.977 12.8781 26.4234 13.225 26.775C13.468 26.9958 13.747 27.1734 14.05 27.3C14.3467 27.44 14.6721 27.5085 15 27.5C15.4095 27.498 15.8121 27.3954 16.1727 27.2013C16.5332 27.0072 16.8405 26.7275 17.0677 26.3868C17.2948 26.0461 17.4348 25.6548 17.4753 25.2474C17.5158 24.8399 17.4556 24.4287 17.3 24.05C17.181 23.7431 17.0026 23.4628 16.775 23.225V23.225ZM25 27.5C25.4095 27.498 25.8121 27.3954 26.1727 27.2013C26.5332 27.0072 26.8405 26.7275 27.0677 26.3868C27.2948 26.0461 27.4348 25.6548 27.4753 25.2474C27.5158 24.8399 27.4556 24.4287 27.3 24.05C27.181 23.7431 27.0026 23.4628 26.775 23.225C26.4889 22.9279 26.1337 22.7063 25.7411 22.5798C25.3485 22.4533 24.9307 22.4259 24.525 22.5C24.3594 22.5232 24.1989 22.5739 24.05 22.65L23.6 22.875L23.225 23.175C22.7563 23.6666 22.4965 24.3208 22.5 25C22.5 25.663 22.7634 26.2989 23.2322 26.7678C23.7011 27.2366 24.337 27.5 25 27.5ZM15.95 32.7C15.3413 32.45 14.6587 32.45 14.05 32.7C13.5935 32.8876 13.2026 33.206 12.9268 33.6153C12.651 34.0246 12.5025 34.5064 12.5 35C12.502 35.4095 12.6046 35.8121 12.7987 36.1727C12.9928 36.5332 13.2725 36.8405 13.6132 37.0677C13.9539 37.2948 14.3452 37.4348 14.7526 37.4753C15.1601 37.5158 15.5713 37.4556 15.95 37.3C16.253 37.1734 16.532 36.9958 16.775 36.775C17.0067 36.5414 17.19 36.2644 17.3144 35.9598C17.4388 35.6552 17.5019 35.329 17.5 35C17.5019 34.671 17.4388 34.3448 17.3144 34.0402C17.19 33.7356 17.0067 33.4586 16.775 33.225C16.5403 32.9935 16.2591 32.8145 15.95 32.7ZM35 32.5H25C24.337 32.5 23.7011 32.7634 23.2322 33.2322C22.7634 33.7011 22.5 34.337 22.5 35C22.5 35.663 22.7634 36.2989 23.2322 36.7678C23.7011 37.2366 24.337 37.5 25 37.5H35C35.663 37.5 36.2989 37.2366 36.7678 36.7678C37.2366 36.2989 37.5 35.663 37.5 35C37.5 34.337 37.2366 33.7011 36.7678 33.2322C36.2989 32.7634 35.663 32.5 35 32.5ZM36.775 23.225C36.5426 22.9907 36.2661 22.8047 35.9614 22.6778C35.6568 22.5509 35.33 22.4855 35 22.4855C34.67 22.4855 34.3432 22.5509 34.0386 22.6778C33.7339 22.8047 33.4574 22.9907 33.225 23.225C32.9974 23.4628 32.819 23.7431 32.7 24.05C32.5543 24.3922 32.4868 24.7626 32.5024 25.1342C32.518 25.5058 32.6163 25.8693 32.7902 26.1981C32.964 26.5269 33.2091 26.8127 33.5074 27.0348C33.8058 27.2569 34.1499 27.4096 34.5148 27.4818C34.8797 27.554 35.256 27.5439 35.6165 27.4522C35.9769 27.3605 36.3124 27.1896 36.5984 26.9518C36.8844 26.714 37.1138 26.4154 37.2697 26.0778C37.4257 25.7401 37.5044 25.3719 37.5 25C37.5085 24.6721 37.44 24.3467 37.3 24.05C37.181 23.7431 37.0026 23.4628 36.775 23.225V23.225ZM46.4 32.925C46.2606 32.8304 46.1093 32.7547 45.95 32.7C45.3413 32.45 44.6587 32.45 44.05 32.7C43.747 32.8266 43.468 33.0042 43.225 33.225C42.7682 33.7041 42.5092 34.3381 42.5 35C42.5 35.663 42.7634 36.2989 43.2322 36.7678C43.7011 37.2366 44.337 37.5 45 37.5C45.663 37.5 46.2989 37.2366 46.7678 36.7678C47.2366 36.2989 47.5 35.663 47.5 35C47.4908 34.3381 47.2318 33.7041 46.775 33.225L46.4 32.925ZM50 12.5H10C8.01088 12.5 6.10322 13.2902 4.6967 14.6967C3.29018 16.1032 2.5 18.0109 2.5 20V40C2.5 41.9891 3.29018 43.8968 4.6967 45.3033C6.10322 46.7098 8.01088 47.5 10 47.5H50C51.9891 47.5 53.8968 46.7098 55.3033 45.3033C56.7098 43.8968 57.5 41.9891 57.5 40V20C57.5 18.0109 56.7098 16.1032 55.3033 14.6967C53.8968 13.2902 51.9891 12.5 50 12.5ZM52.5 40C52.5 40.663 52.2366 41.2989 51.7678 41.7678C51.2989 42.2366 50.663 42.5 50 42.5H10C9.33696 42.5 8.70107 42.2366 8.23223 41.7678C7.76339 41.2989 7.5 40.663 7.5 40V20C7.5 19.337 7.76339 18.7011 8.23223 18.2322C8.70107 17.7634 9.33696 17.5 10 17.5H50C50.663 17.5 51.2989 17.7634 51.7678 18.2322C52.2366 18.7011 52.5 19.337 52.5 20V40ZM46.775 23.225C46.4253 22.8724 45.9786 22.632 45.4917 22.5343C45.0048 22.4366 44.4999 22.4862 44.0413 22.6766C43.5827 22.867 43.1912 23.1897 42.9167 23.6035C42.6422 24.0173 42.4971 24.5034 42.5 25C42.4956 25.3719 42.5743 25.7401 42.7303 26.0778C42.8862 26.4154 43.1156 26.714 43.4016 26.9518C43.6876 27.1896 44.0231 27.3605 44.3835 27.4522C44.744 27.5439 45.1203 27.554 45.4852 27.4818C45.8501 27.4096 46.1942 27.2569 46.4926 27.0348C46.7909 26.8127 47.036 26.5269 47.2098 26.1981C47.3837 25.8693 47.482 25.5058 47.4976 25.1342C47.5132 24.7626 47.4457 24.3922 47.3 24.05C47.181 23.7431 47.0026 23.4628 46.775 23.225V23.225Z" fill="#FE581E"/>
</svg>
