<svg width="21" height="20" viewBox="0 0 21 20" fill="none" xmlns="http://www.w3.org/2000/svg">
<g clip-path="url(#clip0)">
<path d="M11.14 0C11.01 0 10.8769 0.006875 10.7394 0.016875C7.2175 0.29625 8.15188 4.02375 8.09938 5.26688C8.03438 6.175 7.84938 6.89438 7.22438 7.78375C6.485 8.65938 5.45 10.0756 4.95875 11.5494C4.72813 12.2425 4.61688 12.9562 4.72125 13.6269C4.68194 13.656 4.64969 13.6936 4.62688 13.7369C4.41188 13.9619 4.25188 14.2388 4.07625 14.4369C3.91063 14.6025 3.67313 14.6588 3.41188 14.7694C3.15188 14.8825 2.86188 14.9937 2.6925 15.3387C2.6175 15.4956 2.57813 15.6644 2.58188 15.8406C2.58188 16.0031 2.605 16.1725 2.6275 16.2863C2.67688 16.6181 2.725 16.8919 2.66 17.0938C2.45188 17.6594 2.42938 18.0469 2.5725 18.3306C2.71813 18.6106 3.01813 18.7213 3.35313 18.8325C4.03063 18.9981 4.945 18.9456 5.66813 19.33C6.43875 19.7206 7.22375 19.89 7.84875 19.7244C8.06433 19.676 8.26644 19.5803 8.44039 19.4441C8.61434 19.3078 8.75576 19.1346 8.85438 18.9369C9.3425 18.9338 9.87938 18.7119 10.7363 18.6569C11.3188 18.6075 12.0481 18.8813 12.8844 18.8225C12.9069 18.9369 12.9363 18.9881 12.9819 19.1025V19.1056C13.3069 19.7531 13.9094 20.0462 14.5544 19.9975C15.195 19.9456 15.8788 19.5519 16.4319 18.9075C16.9594 18.2725 17.835 18.005 18.4144 17.6575C18.7044 17.4906 18.9388 17.2669 18.955 16.9444C18.9744 16.6125 18.7894 16.2675 18.3625 15.7987V15.7169L18.3594 15.7137C18.2163 15.5481 18.1513 15.2681 18.0763 14.9431C18.0044 14.6075 17.9263 14.2888 17.6663 14.0706C17.6138 14.025 17.5619 14.015 17.5069 13.96C17.4607 13.9275 17.4064 13.9084 17.35 13.905C17.7081 12.84 17.5681 11.7825 17.2031 10.8281C16.7606 9.65313 15.9825 8.62813 15.3931 7.925C14.7288 7.08813 14.0781 6.29437 14.0913 5.11938C14.1138 3.325 14.2894 0.00875 11.1388 0.001875L11.14 0ZM11.5794 2.83812H11.5925C11.7681 2.83812 11.9206 2.89062 12.0775 3.00125C12.2369 3.11438 12.3544 3.27812 12.4419 3.44687C12.53 3.66188 12.5763 3.8275 12.5819 4.04875C12.5819 4.03312 12.585 4.01625 12.585 4.00063V4.08812C12.585 4.08125 12.5819 4.07562 12.5819 4.06875L12.5788 4.04875C12.5788 4.25125 12.5369 4.45312 12.4556 4.63812C12.417 4.74345 12.3558 4.83902 12.2763 4.91813C12.2538 4.90562 12.2306 4.8925 12.2044 4.8825C12.1169 4.84312 12.0388 4.83063 11.9669 4.7725C11.9077 4.74881 11.8467 4.7302 11.7844 4.71688C11.8238 4.66875 11.905 4.60625 11.9375 4.55125C11.98 4.44688 12.0025 4.33313 12.0094 4.21625V4.19938C12.0112 4.08655 11.9934 3.97427 11.9569 3.8675C11.9213 3.75688 11.8763 3.70062 11.8075 3.59062C11.7356 3.535 11.6675 3.48 11.5825 3.48H11.57C11.4919 3.48 11.4231 3.5025 11.3519 3.59062C11.2737 3.66772 11.2155 3.76277 11.1825 3.8675C11.1371 3.9725 11.1117 4.08505 11.1075 4.19938V4.21625C11.1075 4.29063 11.1144 4.36562 11.1231 4.44063C10.9606 4.38562 10.7588 4.32625 10.6156 4.27125C10.6078 4.21637 10.6035 4.16105 10.6025 4.10562V4.08875C10.5962 3.86865 10.6386 3.64987 10.7269 3.44813C10.795 3.26563 10.9188 3.10875 11.085 3.005C11.2275 2.89813 11.4 2.83938 11.5794 2.83938V2.83812ZM9.11188 2.8875H9.14125C9.25875 2.8875 9.36625 2.92687 9.47375 2.99813C9.59688 3.10562 9.69563 3.23875 9.76063 3.385C9.83563 3.55187 9.8775 3.72063 9.89063 3.94187V3.945C9.89375 4.05562 9.89375 4.115 9.8875 4.16687V4.235L9.81938 4.25437C9.6925 4.3 9.59188 4.365 9.49 4.42125C9.5 4.34625 9.5 4.27125 9.49313 4.19938V4.18625C9.48375 4.07625 9.46063 4.02063 9.425 3.90938C9.39832 3.82383 9.35012 3.74657 9.285 3.685C9.24407 3.6485 9.19039 3.62964 9.13563 3.6325H9.11563C9.0575 3.63562 9.00813 3.665 8.96313 3.74312C8.90803 3.8065 8.87301 3.88481 8.8625 3.96812C8.83938 4.05562 8.8325 4.15 8.8425 4.245V4.25437C8.8525 4.36875 8.87188 4.42438 8.91063 4.53438C8.93577 4.61916 8.98301 4.69573 9.0475 4.75625C9.0575 4.76625 9.06438 4.77312 9.07688 4.77562C9.01875 4.825 8.97938 4.835 8.93125 4.89C8.89813 4.91313 8.86313 4.9425 8.82063 4.94938C8.73395 4.84511 8.65755 4.73272 8.5925 4.61375C8.51276 4.43855 8.46857 4.24927 8.4625 4.05688C8.44988 3.86884 8.47191 3.68008 8.5275 3.5C8.57688 3.3375 8.655 3.18438 8.765 3.05438C8.8725 2.94375 8.98 2.88875 9.11313 2.88875L9.11188 2.8875ZM10.2544 4.31C10.5313 4.31 10.8638 4.36188 11.2669 4.64188C11.5113 4.80875 11.7038 4.86688 12.1463 5.02938C12.3613 5.14375 12.4844 5.25437 12.5463 5.365V5.25437C12.5759 5.31474 12.5924 5.38073 12.5947 5.44797C12.597 5.5152 12.5849 5.58215 12.5594 5.64437C12.455 5.905 12.1294 6.18188 11.6713 6.3475V6.35063C11.4494 6.46125 11.2544 6.6275 11.0263 6.73812C10.7956 6.84875 10.5344 6.9825 10.1831 6.96C10.0559 6.96558 9.92883 6.9467 9.80875 6.90438C9.71617 6.85523 9.62701 6.79989 9.54188 6.73875C9.37938 6.62812 9.23938 6.46187 9.03125 6.35125V6.34812H9.02813C8.6925 6.14312 8.51375 5.92125 8.455 5.75562C8.4 5.53125 8.45188 5.36562 8.61813 5.255C8.80313 5.14437 8.93313 5.03 9.01813 4.975C9.10563 4.91313 9.13875 4.89 9.165 4.8675H9.16813V4.86438C9.30813 4.695 9.52875 4.47375 9.86813 4.3625C9.98125 4.33313 10.1125 4.31063 10.255 4.31063L10.2544 4.31ZM12.585 6.09312C12.885 7.275 13.585 8.99063 14.0344 9.82063C14.2719 10.2663 14.7469 11.2038 14.9519 12.3406C15.0819 12.3375 15.225 12.3562 15.3788 12.3956C15.9188 11.0025 14.9263 9.505 14.4738 9.08813C14.2881 8.9225 14.2788 8.81125 14.3694 8.81125C14.8613 9.25375 15.505 10.1206 15.7394 11.1063C15.8469 11.5519 15.8738 12.0281 15.7594 12.4994C15.8144 12.5219 15.87 12.5512 15.9288 12.5544C16.7881 13.0013 17.1069 13.3363 16.9538 13.8369V13.8013C16.9056 13.7988 16.8531 13.8013 16.8044 13.8013H16.7913C16.9188 13.4113 16.6388 13.1112 15.9031 12.7794C15.1413 12.4475 14.5325 12.4994 14.4281 13.1669C14.4208 13.2046 14.4166 13.2428 14.4156 13.2812C14.3563 13.3006 14.2981 13.3231 14.24 13.3331C13.8819 13.5581 13.6894 13.8931 13.5794 14.3231C13.4719 14.7688 13.4394 15.2863 13.41 15.8825C13.39 16.1625 13.2669 16.5819 13.1425 17.0081C11.8925 17.9031 10.1575 18.2906 8.68688 17.2881C8.59188 17.1256 8.48125 16.9756 8.35125 16.8425C8.28884 16.7391 8.21107 16.6457 8.12063 16.5656C8.27313 16.5656 8.40375 16.54 8.50813 16.51C8.62733 16.4526 8.72106 16.3531 8.77125 16.2306C8.85938 16.0087 8.77125 15.6506 8.48125 15.26C8.19563 14.8731 7.70688 14.4331 6.99375 13.9944C6.46688 13.6625 6.17063 13.2688 6.03375 12.8319C5.89688 12.3863 5.91625 11.9269 6.02063 11.4619C6.22563 10.57 6.75 9.70125 7.08563 9.15687C7.17313 9.105 7.115 9.27125 6.74375 9.97125C6.41438 10.5963 5.79313 12.0513 6.64188 13.1806C6.6745 12.3558 6.85772 11.5439 7.1825 10.785C7.65063 9.72062 8.63438 7.86562 8.7125 6.39437C8.75188 6.42688 8.89188 6.50875 8.95313 6.56375C9.1325 6.67438 9.26875 6.84062 9.445 6.95125C9.62063 7.11687 9.84188 7.23125 10.1744 7.23125C10.2069 7.23438 10.2363 7.23438 10.265 7.23438C10.6069 7.23438 10.8744 7.12375 11.095 7.0125C11.3356 6.89813 11.5319 6.7325 11.7131 6.6775H11.7163C12.1038 6.56687 12.4131 6.34188 12.5856 6.09438L12.585 6.09312ZM14.4081 13.5581C14.4406 14.0588 14.695 14.5963 15.1438 14.7063C15.6319 14.8169 16.3381 14.4294 16.6344 14.0688L16.81 14.0619C17.0731 14.055 17.2919 14.0688 17.5156 14.2838L17.5188 14.2869C17.6913 14.4525 17.7731 14.7294 17.8444 15.0162C17.9163 15.3512 17.9713 15.6669 18.1863 15.9044C18.5894 16.3438 18.7231 16.6594 18.7169 16.855C18.7038 17.0725 18.56 17.1831 18.3 17.3494C17.7756 17.685 16.845 17.9419 16.2525 18.6588C15.7375 19.2738 15.11 19.6087 14.5556 19.6512C14.0025 19.6969 13.5238 19.4856 13.2438 18.9031L13.2406 18.9C13.065 18.5675 13.14 18.0469 13.2863 17.4931C13.4331 16.9363 13.6444 16.3706 13.6738 15.9113C13.7031 15.3156 13.7356 14.7981 13.8331 14.3969C13.9338 14.0094 14.0906 13.7325 14.3706 13.58L14.4063 13.56L14.4081 13.5581ZM5.39438 13.6H5.40438C5.45 13.6 5.4925 13.6031 5.53438 13.6131C5.84688 13.6588 6.12375 13.89 6.3875 14.2381L7.14563 15.625L7.14875 15.6281C7.35063 16.0706 7.77688 16.5131 8.13813 16.9925C8.5 17.49 8.78 17.9356 8.7475 18.3006V18.3075C8.69813 18.9256 8.34688 19.2606 7.81 19.385C7.2725 19.4956 6.54313 19.385 5.81438 18.9975C5.0075 18.5519 4.04688 18.6069 3.43188 18.4956C3.12625 18.4406 2.92438 18.3263 2.82938 18.1606C2.73875 17.995 2.735 17.6588 2.93375 17.135V17.1325C3.03125 16.8525 2.96063 16.5044 2.91125 16.1981C2.86563 15.8656 2.84313 15.6081 2.94688 15.4163C3.08 15.1363 3.27875 15.0844 3.5225 14.9706C3.76688 14.86 4.05688 14.805 4.28438 14.58H4.2875V14.5769C4.49938 14.3562 4.65938 14.0794 4.84438 13.88C5.00125 13.7106 5.16 13.6 5.39438 13.6ZM11.3619 6.03813C11 6.20375 10.5738 6.48375 10.1213 6.48375C9.66875 6.48375 9.31375 6.26312 9.05688 6.09625C8.92688 5.98312 8.8225 5.87187 8.74438 5.81625C8.6075 5.70625 8.62375 5.53688 8.6825 5.53688C8.77313 5.54938 8.79 5.65 8.84813 5.70625C8.93 5.76125 9.0275 5.87187 9.1475 5.98312C9.39188 6.14875 9.7175 6.37312 10.1206 6.37312C10.525 6.37312 11 6.14875 11.2863 5.98312C11.4488 5.8725 11.6569 5.70625 11.8263 5.59562C11.9563 5.48125 11.9506 5.37063 12.0569 5.37063C12.1644 5.38375 12.0869 5.48125 11.9369 5.6475C11.7838 5.76188 11.5494 5.9275 11.3613 6.03813H11.3619ZM10.46 4.71688V4.70125C10.4569 4.68437 10.4694 4.66563 10.4856 4.65875C10.5438 4.62313 10.635 4.63562 10.7006 4.66188C10.7525 4.66188 10.8338 4.71688 10.8275 4.775C10.8206 4.81437 10.7556 4.83063 10.7131 4.83063C10.6681 4.83063 10.635 4.795 10.5963 4.7725C10.5538 4.75938 10.4719 4.76562 10.4594 4.71688H10.46ZM10.0006 4.71688C9.98375 4.76625 9.90563 4.75938 9.86375 4.7725C9.82438 4.795 9.79188 4.83063 9.74625 4.83063C9.70375 4.83063 9.63563 4.81375 9.63188 4.7725C9.62625 4.71688 9.70375 4.66188 9.75625 4.66188C9.82438 4.635 9.90875 4.6225 9.97375 4.65875C9.98688 4.66563 10.0038 4.68437 9.99688 4.70125V4.71688H10.0006Z" fill="#FE581E"/>
</g>
<defs>
<clipPath id="clip0">
<rect width="20" height="20" fill="white" transform="translate(0.720001)"/>
</clipPath>
</defs>
</svg>
