<svg width="190" height="176" viewBox="0 0 190 176" fill="none" xmlns="http://www.w3.org/2000/svg">
<path d="M7.56816 57.6374C18.0237 50.7214 26.781 42.6662 38.3682 37.361C66.4818 24.4884 101.358 27.3869 127.968 42.6082C135.449 46.8874 142.535 52.093 148.768 58.053C152.565 61.6842 155.832 66.4743 159.968 69.6375V70.0375C151.746 74.785 143.8 82.9087 138.118 90.4375C136.625 92.4155 132.952 96.1499 133.339 98.8375C133.703 101.375 137.454 103.923 139.168 105.637C140.911 107.381 143.761 111.57 146.368 111.825C150.176 112.198 155.743 106.299 158.368 104.037C162.449 100.522 169.677 94.9055 171.459 89.6375C172.228 87.3615 171.272 83.9555 170.937 81.6375C170.093 75.8139 168.755 70.189 167.568 64.4374L160.768 68.8374C159.993 59.963 154.242 50.1226 150.061 42.4374C140.35 24.5914 124.625 8.64356 104.768 2.72572C74.7794 -6.21182 43.1858 8.38316 23.516 31.2374C17.0999 38.6922 10.3276 48.055 7.56816 57.6374ZM140.768 10.4374C148.085 21.1382 156.151 30.629 161.865 42.4374C175.942 71.5314 179.731 108.683 168.198 139.237C163.589 151.448 155.705 160.021 148.368 170.437C151.42 169.263 153.915 166.708 156.368 164.606C163.43 158.555 169.375 151.365 174.501 143.637C197.813 108.497 193.419 58.4054 164.004 28.0532C157.574 21.4188 149.637 13.6658 140.768 10.4374ZM39.9682 169.237C38.3162 165.695 34.585 162.845 32.2663 159.637C27.3552 152.843 23.3254 145.239 20.7796 137.237C11.3341 107.549 20.7376 74.3231 44.3682 53.9854C50.297 48.8826 57.2922 43.783 64.7682 41.2374C60.199 39.3738 50.8402 43.4802 46.3682 44.9706C27.8676 51.1378 8.83648 63.2863 2.77836 82.8375C-4.65098 106.813 7.9542 134.428 22.7685 152.837C27.6308 158.88 33.3446 165.099 39.9682 169.237ZM36.3682 136.037H36.7682C36.7682 121.853 38.8498 107.487 45.6918 94.8375C60.3878 67.667 91.9226 53.6494 121.968 61.1954C132.514 63.8438 139.011 70.0095 147.568 76.0375C143.499 68.7374 136.233 62.7846 129.168 58.519C104.274 43.487 70.9186 46.5618 49.9698 67.2434C31.5352 85.4426 28.6897 112.439 36.3682 136.037ZM59.9682 92.8375C48.5002 111.421 42.9974 133.947 54.9494 154.037C74.6954 187.229 128.598 180.422 146.768 148.837C137.738 154.811 130.44 161.207 119.568 163.776C94.3006 169.745 67.761 153.512 59.5698 129.237C57.2334 122.314 56.2994 114.102 57.3394 106.837C57.8758 103.092 60.995 96.3079 59.9682 92.8375ZM128.368 103.105C127.36 103.365 126.385 104.001 125.584 104.649C119.268 109.755 125.58 114.049 129.568 118.037C131.35 119.819 133.478 122.933 136.368 122.268C137.413 122.027 138.351 121.397 139.152 120.706C145.177 115.514 138.702 111.171 134.768 107.237C133.155 105.625 130.998 102.425 128.368 103.105ZM80.3682 155.637C98.463 159.823 115.466 156.549 125.397 139.237C127.083 136.299 131.51 129.975 130.797 126.437C130.338 124.163 127.134 122.053 125.604 120.443C123.531 118.261 121.507 115.078 118.768 113.709C114.006 111.328 105.301 114.925 102.042 118.453C96.0962 124.891 96.6298 134.516 92.8446 142.037C91.1318 145.44 88.3814 148.625 85.5678 151.169C83.9242 152.656 81.5602 153.779 80.3682 155.637Z" fill="#FE581E"/>
</svg>
