<svg width="60" height="60" viewBox="0 0 60 60" fill="none" xmlns="http://www.w3.org/2000/svg">
<path d="M24.2392 39.1604L21.1879 36.2042C19.1537 35.7115 16.1024 35.9578 14.3225 38.6677C12.2883 41.3776 13.5597 45.5656 9.99982 50C9.99982 50 18.8994 50 22.205 46.7974C25.2562 43.8411 25.2562 41.3776 24.7477 39.4068L24.2392 39.1604Z" fill="#FE581E"/>
<path d="M24.189 30.5556C23.7025 31.2222 22.9728 32.1111 22.4863 32.7778C22.4863 33.2222 22.2431 33.4444 21.9998 33.6667L25.6485 37C25.8917 36.7778 26.3782 36.5556 26.6214 36.3333C27.3512 35.8889 28.3241 35.4444 29.0539 34.7778C30.0268 34.7778 30.5133 34.3333 30.9998 33.8889L25.6485 29C25.162 29.4444 24.6755 29.8889 24.189 30.5556Z" fill="#FE581E"/>
<path d="M49.4389 10.5958C48.691 9.84914 47.6939 9.84914 46.946 10.3469C46.946 10.3469 39.4672 16.5691 32.2378 23.0401C31.2406 24.0356 30.4927 24.7823 29.4956 25.529C28.997 26.0267 28.4984 26.5245 27.9998 26.7734L33.2349 32C33.7335 31.5022 34.2321 31.0045 34.4814 30.2578C35.2293 29.2623 35.9772 28.5156 36.725 27.5201C42.9573 20.0535 49.4389 12.8358 49.4389 12.8358C50.1868 12.338 50.1868 11.3425 49.4389 10.5958Z" fill="#FE581E"/>
</svg>
