<svg width="61" height="60" viewBox="0 0 61 60" fill="none" xmlns="http://www.w3.org/2000/svg">
<path d="M45.6649 3.75H17.0486V56.25H56.2549V14.79L45.7943 3.885L45.6649 3.75Z" fill="#FE581E"/>
<path d="M4.70367 6.54926H42.7793V21.2568H4.70367V6.54926Z" fill="#FEDACD"/>
<path d="M45.6649 3.75V14.79H56.2549L45.6649 3.75Z" fill="#FEDACD"/>
<path d="M13.7917 9.35076C14.5594 9.20761 15.3398 9.14477 16.1205 9.16326C16.522 9.1275 16.9266 9.17426 17.3093 9.30066C17.692 9.42706 18.0449 9.63043 18.3461 9.89826C18.8967 10.5203 19.1849 11.3314 19.1505 12.1614C19.1917 12.9813 18.9552 13.7912 18.4792 14.4601C18.1853 14.7881 17.8214 15.0457 17.4143 15.2138C17.0073 15.3819 16.5677 15.4563 16.128 15.4314C15.9738 15.4311 15.8198 15.4217 15.6667 15.4033V18.5908H13.7917V9.35076ZM15.6667 13.487C15.8084 13.5065 15.9513 13.5159 16.0942 13.5151C16.2636 13.522 16.4324 13.4918 16.5888 13.4267C16.7453 13.3615 16.8856 13.2631 17.0001 13.1381C17.1145 13.0131 17.2003 12.8646 17.2514 12.7031C17.3026 12.5415 17.3178 12.3707 17.2961 12.2026C17.3161 12.0536 17.3031 11.902 17.2579 11.7586C17.2127 11.6152 17.1365 11.4835 17.0346 11.3729C16.9328 11.2623 16.8078 11.1754 16.6686 11.1186C16.5294 11.0617 16.3794 11.0362 16.2292 11.0439C16.0401 11.0382 15.851 11.0571 15.6667 11.1001V13.487Z" fill="#FE581E"/>
<path d="M21.2598 16.0838C21.802 16.4466 22.4358 16.6488 23.088 16.6669C23.7348 16.6669 24.0498 16.3744 24.0498 15.9038C24.0498 15.4331 23.7292 15.1875 22.9417 14.8125C22.3633 14.6038 21.8633 14.2217 21.5099 13.7184C21.1566 13.2151 20.9671 12.615 20.9673 12C20.9387 11.618 20.9908 11.2342 21.1204 10.8736C21.25 10.5131 21.4542 10.1839 21.7196 9.90756C21.9849 9.63122 22.3056 9.41392 22.6606 9.26982C23.0156 9.12572 23.3969 9.05806 23.7798 9.07126C24.4501 9.05235 25.1123 9.22051 25.6923 9.55688L25.3042 11.5575C24.8429 11.2711 24.3116 11.1174 23.7686 11.1131C23.1948 11.1131 22.8798 11.3906 22.8798 11.8069C22.8798 12.2794 23.2548 12.4725 24.1436 12.9169C24.7049 13.1358 25.1838 13.5245 25.5135 14.0287C25.8432 14.5329 26.0074 15.1274 25.983 15.7294C26.0126 16.1309 25.9554 16.5342 25.8151 16.9116C25.6748 17.2891 25.4548 17.6318 25.1701 17.9165C24.8854 18.2013 24.5426 18.4212 24.1652 18.5615C23.7878 18.7018 23.3845 18.759 22.983 18.7294C22.255 18.7278 21.5415 18.5261 20.9205 18.1463L21.2598 16.0838Z" fill="#FE581E"/>
<path d="M29.7668 16.8376H29.5793V10.7907H29.6056C30.0109 10.745 30.4208 10.8186 30.7849 11.0026C31.0529 11.2169 31.2711 11.4869 31.4243 11.7939C31.5895 12.1159 31.6847 12.4693 31.7037 12.8307C31.7224 13.2639 31.7037 13.6126 31.7037 13.9145C31.7115 14.2526 31.6895 14.5908 31.6381 14.9251C31.5777 15.2707 31.4652 15.6052 31.3043 15.917C31.1231 16.2056 30.8781 16.4487 30.5881 16.6276C30.345 16.7845 30.0572 16.8576 29.7687 16.8357L29.7668 16.8376ZM30.1287 9.07135C29.9093 9.07135 29.6974 9.08823 29.5474 9.09385L29.0843 9.10698H27.5468V18.5832H29.3543C30.0467 18.6025 30.736 18.4852 31.3831 18.2382C31.9055 18.0321 32.3682 17.699 32.7293 17.2689C33.0789 16.8357 33.3297 16.3315 33.4643 15.7914C33.6196 15.1786 33.6952 14.5484 33.6893 13.9164C33.7274 13.1708 33.6694 12.4234 33.5168 11.6926C33.3702 11.1541 33.0969 10.6585 32.7199 10.247C32.4266 9.91299 32.0672 9.64355 31.6643 9.45573C31.3191 9.29537 30.9559 9.17702 30.5824 9.10323C30.4337 9.07859 30.2831 9.0673 30.1324 9.06948" fill="#FE581E"/>
<path d="M30.4793 36.8458C29.9161 36.8615 29.3525 36.8421 28.7918 36.7877V30.2439C28.9999 30.2139 29.7293 30.1858 30.7418 30.1858C33.1793 30.1858 34.2537 31.2095 34.2537 33.5439C34.2537 36.4614 32.5362 36.8458 30.4812 36.8458H30.4793ZM30.7418 27.4127C28.7655 27.4127 26.8137 27.4427 25.8255 27.4708C25.6962 27.4708 25.6699 27.5289 25.6699 27.6752V46.2939C25.6699 46.4402 25.7224 46.4983 25.8574 46.4983H28.6043C28.7337 46.4983 28.7918 46.4402 28.7918 46.2639V39.6189H30.4043C34.2274 39.6189 37.3755 38.3852 37.3755 33.7464C37.3493 30.362 35.8418 27.4127 30.7418 27.4127Z" fill="#FEDACD"/>
<path d="M43.7449 32.2836C43.1469 32.2111 42.5404 32.2665 41.9654 32.4462C41.3905 32.6259 40.8604 32.9258 40.4102 33.3259C39.96 33.7261 39.6 34.2175 39.3542 34.7674C39.1084 35.3173 38.9823 35.9132 38.9842 36.5155C38.9842 38.6455 39.9217 39.7836 42.5992 41.0155C44.4742 41.8611 44.9411 42.2999 44.9411 43.0574C44.9411 43.6986 44.5249 44.3699 43.3286 44.3699C41.7976 44.2799 40.3294 43.7303 39.1155 42.793C39.0973 42.7787 39.0749 42.7708 39.0517 42.7705C38.9899 42.7705 38.9336 42.8305 38.9336 42.9393V45.6243C38.9277 45.6829 38.9394 45.7421 38.9671 45.7941C38.9948 45.8462 39.0373 45.8889 39.0892 45.9168C40.2951 46.6769 41.6951 47.0722 43.1205 47.0549C43.7464 47.1308 44.3813 47.0697 44.9812 46.8756C45.5811 46.6815 46.1315 46.3592 46.5943 45.931C47.0571 45.5028 47.4211 44.9791 47.6611 44.3961C47.9012 43.8131 48.0114 43.1848 47.9842 42.5549C47.9842 40.453 46.8405 39.3674 44.1611 38.1486C42.2111 37.273 41.8717 36.8943 41.8717 36.193C41.8717 35.6305 42.2092 34.9668 43.4842 34.9668C44.7671 35.0038 46.016 35.3867 47.0992 36.0749C47.1277 36.0956 47.1616 36.1074 47.1967 36.1086C47.2774 36.1086 47.3336 36.028 47.3336 35.8986V33.5099C47.3415 33.4393 47.3313 33.3679 47.3041 33.3023C47.2769 33.2368 47.2335 33.1791 47.178 33.1349C46.1376 32.5316 44.9465 32.2382 43.7449 32.2893" fill="#FEDACD"/>
</svg>
