<svg width="60" height="60" viewBox="0 0 60 60" fill="none" xmlns="http://www.w3.org/2000/svg">
<path d="M22.5 5C27.1413 5 31.5925 6.84374 34.8744 10.1256C38.1563 13.4075 40 17.8587 40 22.5C40 26.425 38.75 30 36.525 32.975L38.525 35H40L55 50L50 55L35 40V38.525L32.975 36.525C29.9567 38.7965 26.2775 40.0171 22.5 40C17.8587 40 13.4075 38.1563 10.1256 34.8744C6.84374 31.5925 5 27.1413 5 22.5C5 17.8587 6.84374 13.4075 10.1256 10.1256C13.4075 6.84374 17.8587 5 22.5 5V5ZM20 12.5V20H12.5V25H20V32.5H25V25H32.5V20H25V12.5H20Z" fill="#FE581E"/>
</svg>
